<?xml version="1.0" encoding="UTF-8" standalone="no"?>
<svg
   xmlns:dc="http://purl.org/dc/elements/1.1/"
   xmlns:cc="http://creativecommons.org/ns#"
   xmlns:rdf="http://www.w3.org/1999/02/22-rdf-syntax-ns#"
   xmlns:svg="http://www.w3.org/2000/svg"
   xmlns="http://www.w3.org/2000/svg"
   xmlns:sodipodi="http://sodipodi.sourceforge.net/DTD/sodipodi-0.dtd"
   xmlns:inkscape="http://www.inkscape.org/namespaces/inkscape"
   width="316"
   height="97"
   viewBox="0 0 316 97"
   fill="none"
   version="1.1"
   id="svg12"
   sodipodi:docname="logoR.svg"
   inkscape:version="1.0 (4035a4fb49, 2020-05-01)">
  <metadata
     id="metadata18">
    <rdf:RDF>
      <cc:Work
         rdf:about="">
        <dc:format>image/svg+xml</dc:format>
        <dc:type
           rdf:resource="http://purl.org/dc/dcmitype/StillImage" />
        <dc:title></dc:title>
      </cc:Work>
    </rdf:RDF>
  </metadata>
  <defs
     id="defs16" />
  <sodipodi:namedview
     inkscape:document-rotation="0"
     pagecolor="#ffffff"
     bordercolor="#666666"
     borderopacity="1"
     objecttolerance="10"
     gridtolerance="10"
     guidetolerance="10"
     inkscape:pageopacity="0"
     inkscape:pageshadow="2"
     inkscape:window-width="2560"
     inkscape:window-height="1012"
     id="namedview14"
     showgrid="false"
     inkscape:zoom="3.4324142"
     inkscape:cx="217.7247"
     inkscape:cy="94.078201"
     inkscape:window-x="-8"
     inkscape:window-y="-8"
     inkscape:window-maximized="1"
     inkscape:current-layer="svg12"
     showguides="false" />
  <rect
     y="0"
     x="0"
     height="97.692703"
     width="316.84119"
     id="rect843"
     style="fill:#29b6d1;fill-opacity:1;stroke:none;stroke-width:0.890223;stroke-linecap:round;stroke-linejoin:round" />
  <path
     fill-rule="evenodd"
     clip-rule="evenodd"
     d="m 150.19186,35.148632 c -2.32,0 -5.074,0.4919 -8.0821,3.9798 v -9.7611 c 0,-2.4659 -2.0013,-4.4718 -4.4616,-4.4718 -2.4603,0 -4.4616,2.0059 -4.4616,4.4718 v 31.8324 c 0,2.4658 2.0013,4.4717 4.4616,4.4717 2.4603,0 4.4616,-2.0059 4.4616,-4.4717 v -12.3548 c 0,-3.5518 1.6827,-5.513 4.7481,-5.513 3.002,0 4.583,1.9037 4.583,5.513 v 12.3548 c 0,2.4658 2.001,4.4717 4.462,4.4717 2.46,0 4.461,-2.0059 4.461,-4.4717 v -14.9484 c -0.006,-6.9504 -3.805,-11.1027 -10.172,-11.1027 z m 25.623,0.2173 c -3.633,0 -6.514,0.4727 -9.338,1.5332 -1.466,0.5494 -2.447,1.9675 -2.447,3.5263 0,2.0825 1.651,3.7115 3.76,3.7115 0.434,0 0.797,-0.0639 1.294,-0.23 1.715,-0.5366 3.525,-0.7921 5.545,-0.7921 4.793,0 5.813,2.6511 5.826,4.8934 -1.664,-0.543 -3.761,-1.0413 -6.686,-1.0413 -7.623,0 -11.996,3.4943 -11.996,9.5951 v 0.1086 c 0,5.513 4.131,9.2182 10.275,9.2182 3.461,0 6.234,-1.0541 8.445,-3.2133 0.376,1.5779 1.887,3.0024 4.207,3.0024 2.441,0 4.353,-1.8909 4.353,-4.3056 v -13.1789 c 0,-4.1459 -1.083,-7.34 -3.231,-9.4865 -2.218,-2.2167 -5.584,-3.341 -10.007,-3.341 z m -1.294,24.1155 c -2.53,0 -4.098,-1.201 -4.098,-3.1366 v -0.1086 c 0,-2.3062 1.925,-3.6221 5.284,-3.6221 1.72,0 3.435,0.3385 4.856,0.9518 v 1.2201 c 0,2.7598 -2.485,4.6954 -6.042,4.6954 z m 26.489,-20.2759 c 2.307,-2.7278 5.15,-4.0566 8.668,-4.0566 6.712,0 13.5,5.2575 13.5,15.3126 v 0.1086 c 0,4.6314 -1.421,8.5538 -4.105,11.3518 -2.454,2.5617 -5.787,3.9671 -9.395,3.9671 -3.473,0 -6.233,-1.1882 -8.623,-3.7179 v 7.6658 c 0,2.4658 -2.002,4.4717 -4.462,4.4717 -2.46,0 -4.462,-2.0059 -4.462,-4.4717 v -29.999 c 0,-2.4659 2.002,-4.4718 4.462,-4.4718 2.25,0 4.111,1.6738 4.417,3.8394 z m 13.251,11.256 c 0,-4.3376 -2.874,-7.6148 -6.686,-7.6148 -3.837,0 -6.629,3.2005 -6.629,7.6148 v 0.1086 c 0,4.4142 2.786,7.6147 6.629,7.6147 3.875,0 6.686,-3.2005 6.686,-7.6147 z m 28.523,-15.3126 c -3.519,0 -6.361,1.3288 -8.669,4.0566 -0.306,-2.1656 -2.167,-3.8394 -4.417,-3.8394 -2.46,0 -4.461,2.0059 -4.461,4.4718 v 29.999 c 0,2.4658 2.001,4.4717 4.461,4.4717 2.461,0 4.462,-2.0059 4.462,-4.4717 v -7.6658 c 2.39,2.5297 5.15,3.7179 8.624,3.7179 3.607,0 6.941,-1.4054 9.395,-3.9671 2.683,-2.798 4.104,-6.7204 4.104,-11.3518 v -0.1086 c 0,-10.0551 -6.788,-15.3126 -13.499,-15.3126 z m -2.104,7.6978 c 3.812,0 6.686,3.2772 6.686,7.6148 v 0.1086 c 0,4.4142 -2.81,7.6147 -6.686,7.6147 -3.843,0 -6.628,-3.2005 -6.628,-7.6147 v -0.1086 c 0,-4.4143 2.791,-7.6148 6.628,-7.6148 z m 35.509,-4.1077 c 0.828,-2.2104 2.307,-3.373 4.276,-3.373 2.378,0 4.245,1.8206 4.239,4.1332 0,0.6707 -0.217,1.6417 -0.408,2.0889 l -10.064,24.2241 c -2.53,6.139 -5.169,8.3174 -10.083,8.3174 -1.734,0 -3.066,-0.23 -4.596,-0.7793 -1.052,-0.3833 -2.823,-1.3799 -2.823,-3.7435 0,-2.3253 1.829,-3.7116 3.594,-3.7116 0.701,0 1.122,0.1214 1.46,0.2364 0.695,0.2172 1.077,0.3066 1.606,0.3066 1.339,0 1.9,-0.2172 2.575,-1.514 l 0.204,-0.4855 -9.79,-22.7356 c -0.223,-0.5622 -0.459,-1.431 -0.459,-2.0379 0,-2.453 1.893,-4.3056 4.404,-4.3056 2.072,0 3.474,1.086 4.277,3.3219 l 5.896,15.8874 z"
     fill="#ffffff"
     id="path2" />
  <path
     d="m 108.67776,31.140832 v 26.1292 c 0,10.3706 -8.44,18.7785 -18.850199,18.7785 h -1.9067 l -9.7365,9.6932 c -0.3813,0.3799 -0.9088,0.6205 -1.4935,0.6205 -0.5403,0 -1.0296,-0.1963 -1.4046,-0.5255 l -0.1652,-0.1646 -0.0064,-0.0063 -9.6539,-9.6173 h -1.913 c -10.40387,0 -18.8439,-8.4079 -18.8439,-18.7785 v -26.1292 c 0,-10.37066 8.44003,-18.7786 18.8503,-18.7786 h 26.2734 c 10.410199,0 18.850199,8.40794 18.850199,18.7786 z"
     fill="#ffd666"
     id="path4" />
  <path
     d="m 59.598861,48.559232 c -1.8558,0 -2.9136,2.1066 -1.8368,3.6278 4.1867,5.9253 11.1095,9.7885 18.9318,9.7885 7.8223,0 14.7389,-3.8696 18.9255,-9.7885 1.0768,-1.5212 0.019,-3.6278 -1.8368,-3.6278 z"
     fill="#ffffff"
     id="path6" />
  <path
     d="m 70.467861,39.592032 h -11.1982 v -5.6262 c 0,-3.1059 2.5082,-5.6262 5.5991,-5.6262 3.0909,0 5.5991,2.5203 5.5991,5.6262 z"
     fill="#ffffff"
     id="path8" />
  <path
     d="m 94.118661,39.592032 h -11.1982 v -5.6262 c 0,-3.1059 2.5082,-5.6262 5.5991,-5.6262 3.0909,0 5.5991,2.5203 5.5991,5.6262 z"
     fill="#ffffff"
     id="path10" />
</svg>
